# Blender v2.92.0 OBJ File: 'torso.blend'
# www.blender.org
mtllib torsofix.mtl
o Cube_Cube.001
v -0.787204 3.202240 1.195026
v -0.787204 3.202240 -1.195028
v 0.787204 3.202240 -1.195028
v 0.787204 3.202240 1.195026
v -0.399006 0.025040 -0.418517
v -1.000000 4.115933 -2.159489
v -0.399006 0.025040 0.418519
v -1.000000 4.115933 2.159490
v 0.399007 0.025040 -0.418517
v 1.000000 4.115933 -2.159489
v 0.399007 0.025040 0.418519
v 1.000000 4.115933 2.159490
vt 0.463616 0.660567
vt 0.620550 0.437558
vt 1.009450 0.437558
vt 1.166384 0.660567
vt 0.393971 0.925566
vt 0.369009 0.755862
vt 0.184324 0.755862
vt 0.159362 0.925566
vt 0.529985 0.825843
vt 0.416849 0.665073
vt 0.136485 0.665073
vt 0.023349 0.825843
vt 0.159362 0.165612
vt 0.184324 0.335316
vt 0.369009 0.335316
vt 0.393971 0.165612
vt 0.229861 0.619230
vt 0.323472 0.619230
vt 0.323472 0.471948
vt 0.229861 0.471948
vt 0.184324 0.665073
vt 0.229861 0.106022
vt 0.323472 0.106022
vt 0.369009 0.665073
vt 0.325761 0.106022
vt 0.227573 0.106022
vt 0.369009 0.665073
vt 0.323472 0.106022
vt 0.229861 0.106022
vt 0.184324 0.665073
vt 0.746900 -0.337914
vt 0.883099 -0.337914
vn 0.9739 -0.2268 0.0000
vn 0.0000 -0.7260 -0.6877
vn -0.9739 -0.2268 0.0000
vn 0.0000 -0.7260 0.6877
vn 0.0000 -1.0000 0.0000
vn 0.0000 1.0000 0.0000
vn 0.0000 -0.2374 0.9714
vn -0.9926 -0.1213 0.0000
vn 0.0000 -0.2374 -0.9714
vn 0.9926 -0.1213 0.0000
usemtl Material
s off
f 12/1/1 4/2/1 3/3/1 10/4/1
f 10/5/2 3/6/2 2/7/2 6/8/2
f 6/9/3 2/10/3 1/11/3 8/12/3
f 8/13/4 1/14/4 4/15/4 12/16/4
f 5/17/5 9/18/5 11/19/5 7/20/5
f 10/5/6 6/8/6 8/13/6 12/16/6
f 1/21/7 7/22/7 11/23/7 4/24/7
f 2/10/8 5/25/8 7/26/8 1/11/8
f 3/27/9 9/28/9 5/29/9 2/30/9
f 4/2/10 11/31/10 9/32/10 3/3/10
