# Blender v2.92.0 OBJ File: 'tree.blend'
# www.blender.org
mtllib tree.mtl
o Cylinder
v 0.015674 4.366972 -0.253986
v 0.019167 5.127639 0.022685
v 0.028745 5.127639 0.026171
v 0.199847 4.366973 -0.186952
v 0.033842 5.127639 0.034998
v 0.292234 4.303646 -0.023413
v 0.032072 5.127639 0.045036
v 0.263809 4.366972 0.175798
v 0.024263 5.127639 0.051588
v 0.113670 4.366972 0.301780
v 0.014070 5.127639 0.051588
v -0.087932 4.303646 0.295584
v 0.006262 5.127639 0.045036
v -0.232462 4.366972 0.175798
v 0.004492 5.127639 0.034998
v -0.266496 4.366972 -0.017217
v 0.009589 5.127639 0.026171
v -0.174109 4.303646 -0.193148
v -0.005440 1.091162 -0.939428
v 0.637348 1.091162 -0.705472
v 0.979368 0.897085 -0.113076
v 0.860586 0.897085 0.560572
v 0.336580 1.091162 1.000265
v -0.353069 1.027836 0.994068
v -0.871465 0.897085 0.560572
v -0.990247 0.897085 -0.113076
v -0.653837 0.833758 -0.711668
v -1.162461 0.845752 -0.150182
v -0.862932 1.447218 -0.094124
v -0.569643 1.383892 -0.618026
v -0.766733 0.782426 -0.851516
v -0.002290 1.447218 -0.816288
v -0.006855 0.845752 -1.119851
v -1.023078 0.845752 0.640299
v -0.759126 1.447218 0.494589
v -0.413802 0.782426 1.150053
v -0.306797 1.383892 0.872648
v 0.394483 0.845752 1.156250
v 0.296607 1.447218 0.878845
v 1.009368 0.845752 0.640300
v 0.754545 1.447218 0.494589
v 1.143143 0.782426 -0.156378
v 0.858351 1.447218 -0.094124
v 0.747414 0.845752 -0.845319
v 0.559453 1.447218 -0.611830
v -0.470645 3.593467 -0.047718
v -0.162981 4.417063 0.010068
v -0.106769 4.353736 -0.103204
v -0.309076 3.530140 -0.343475
v 0.015024 4.417063 -0.139296
v 0.010725 3.593467 -0.451635
v -0.412585 3.593467 0.281558
v -0.141511 4.417063 0.131830
v -0.162062 3.530141 0.490282
v -0.052405 4.353736 0.205109
v 0.177903 3.593467 0.496478
v 0.076845 4.417063 0.211305
v 0.434034 3.593467 0.281558
v 0.171559 4.417063 0.131830
v 0.486486 3.530140 -0.053915
v 0.193029 4.417063 0.010068
v 0.324917 3.593467 -0.337279
v 0.131209 4.417063 -0.097008
v 0.005286 2.743304 -0.671042
v 0.010529 3.646014 -0.315061
v 0.242392 3.646014 -0.230669
v 0.463775 2.743304 -0.504165
v 0.365764 3.646014 -0.016983
v 0.702124 2.679977 -0.087815
v 0.322917 3.646014 0.226012
v 0.623007 2.743304 0.398883
v 0.133901 3.646014 0.384616
v 0.249243 2.743304 0.712509
v -0.118452 3.582688 0.378420
v -0.244281 2.679978 0.706312
v -0.301860 3.646014 0.226012
v -0.612436 2.743304 0.398883
v -0.344706 3.646014 -0.016983
v -0.697161 2.743304 -0.081619
v -0.458813 2.679978 -0.510362
v -0.226943 3.582687 -0.236866
v -0.864248 1.979449 -0.105654
v -0.545192 2.795366 -0.046827
v -0.359524 2.732039 -0.384325
v -0.569569 1.916123 -0.631965
v 0.005569 2.795366 -0.508971
v 0.000399 1.979449 -0.831178
v -0.759959 1.979450 0.485799
v -0.478762 2.795366 0.329916
v -0.305499 1.916123 0.865646
v -0.191317 2.732039 0.569622
v 0.300687 1.979450 0.871843
v 0.196847 2.795366 0.575818
v 0.760756 1.979449 0.485799
v 0.489901 2.795366 0.329917
v 0.859436 1.916123 -0.111850
v 0.556331 2.795366 -0.046827
v 0.564756 1.979450 -0.625769
v 0.365054 2.795366 -0.378129
v -0.003388 1.387664 -0.997131
v 0.001149 2.037123 -0.681816
v 0.474390 2.037124 -0.509570
v 0.669916 1.387665 -0.752068
v 0.726197 2.037123 -0.073428
v 1.022565 1.324338 -0.137744
v 0.638746 2.037124 0.422534
v 0.903752 1.387665 0.574081
v 0.252955 2.037124 0.746250
v 0.354870 1.387665 1.034648
v -0.256267 1.973797 0.740054
v -0.367254 1.324338 1.028452
v -0.636448 2.037124 0.422534
v -0.910528 1.387665 0.574081
v -0.723899 2.037123 -0.073428
v -1.034949 1.387664 -0.131548
v -0.682301 1.324338 -0.758265
v -0.477702 1.973797 -0.515766
v -0.018886 0.586215 -0.264436
v -0.018886 1.180444 -0.373037
v 0.231064 1.180444 -0.282063
v 0.161257 0.586215 -0.198870
v 0.364060 1.180444 -0.051708
v 0.257109 0.586215 -0.032850
v 0.317871 1.180444 0.210242
v 0.223820 0.586215 0.155942
v 0.114110 1.180444 0.381218
v 0.076966 0.586215 0.279167
v -0.151881 1.180444 0.381218
v -0.114738 0.586215 0.279166
v -0.355642 1.180444 0.210242
v -0.261591 0.586215 0.155942
v -0.401831 1.180444 -0.051708
v -0.294880 0.586215 -0.032850
v -0.268836 1.180444 -0.282063
v -0.199028 0.586215 -0.198870
v -0.018886 0.004998 -0.373037
v 0.231064 0.004998 -0.282063
v 0.364060 0.004998 -0.051708
v 0.317871 0.004998 0.210242
v 0.114110 0.004998 0.381218
v -0.151881 0.004998 0.381218
v -0.355642 0.004998 0.210242
v -0.401831 0.004998 -0.051708
v -0.268836 0.004998 -0.282063
vt 0.973954 0.797629
vt 0.995024 0.682884
vt 0.996180 0.683106
vt 0.996180 0.801899
vt 0.978068 0.513092
vt 0.978068 0.632041
vt 0.976585 0.632230
vt 0.949370 0.507770
vt 0.975401 0.632645
vt 0.926784 0.524709
vt 0.936695 0.278922
vt 0.942135 0.160475
vt 0.943632 0.160369
vt 0.965485 0.276890
vt 0.944761 0.160027
vt 0.987839 0.278922
vt 0.081328 0.998211
vt 0.126074 0.879122
vt 0.127197 0.879457
vt 0.102781 0.995363
vt 0.128690 0.879605
vt 0.131502 0.998211
vt 0.304727 0.342606
vt 0.303427 0.341855
vt 0.302914 0.340445
vt 0.303427 0.339034
vt 0.304727 0.338284
vt 0.306205 0.338545
vt 0.307170 0.339694
vt 0.307170 0.341196
vt 0.306205 0.342345
vt 0.943172 0.798171
vt 0.993587 0.682451
vt 0.926220 0.780831
vt 0.992542 0.682010
vt 0.026831 0.166904
vt 0.060501 0.072162
vt 0.147107 0.022979
vt 0.246447 0.039666
vt 0.312038 0.114415
vt 0.311894 0.216359
vt 0.248549 0.294235
vt 0.149498 0.312464
vt 0.060878 0.264281
vt 0.203235 0.545992
vt 0.299102 0.530203
vt 0.302914 0.598681
vt 0.211515 0.637582
vt 0.814976 0.513482
vt 0.723968 0.487819
vt 0.723695 0.398850
vt 0.817797 0.394508
vt 0.203235 0.427790
vt 0.299102 0.442172
vt 0.211515 0.338284
vt 0.302914 0.375778
vt 0.455025 0.672656
vt 0.551852 0.661616
vt 0.555660 0.729327
vt 0.463097 0.763684
vt 0.460138 0.554564
vt 0.555660 0.573667
vt 0.584952 0.641101
vt 0.690940 0.639406
vt 0.699362 0.712501
vt 0.605031 0.741052
vt 0.605031 0.525703
vt 0.699362 0.552119
vt 0.723695 0.329818
vt 0.817797 0.301817
vt 0.844644 0.115906
vt 0.902504 0.000000
vt 0.913950 0.012718
vt 0.878777 0.134587
vt 0.933814 0.006227
vt 0.929312 0.132746
vt 0.950775 0.984684
vt 0.968433 0.857090
vt 0.986635 0.857499
vt 1.000000 0.985792
vt 0.914065 0.985792
vt 0.955383 0.863327
vt 0.876301 0.985142
vt 0.860646 0.857090
vt 0.874642 0.862544
vt 0.914065 0.985166
vt 0.827064 0.985166
vt 0.842438 0.857098
vt 0.887848 0.160027
vt 0.918715 0.294281
vt 0.904381 0.299395
vt 0.849311 0.182806
vt 0.936695 0.162533
vt 0.936695 0.291898
vt 0.948075 0.006908
vt 0.967879 0.134587
vt 0.149437 0.599681
vt 0.010373 0.599833
vt 0.010799 0.571343
vt 0.150279 0.543345
vt 0.699362 0.838961
vt 0.700979 0.696560
vt 0.736890 0.692033
vt 0.770541 0.838961
vt 0.765559 0.682010
vt 0.827064 0.810190
vt 0.455025 0.746797
vt 0.437536 0.887746
vt 0.401200 0.887746
vt 0.383174 0.746797
vt 0.373319 0.885451
vt 0.328087 0.750705
vt 0.160454 0.938048
vt 0.204789 0.802555
vt 0.231581 0.798711
vt 0.214453 0.939463
vt 0.267917 0.798711
vt 0.286303 0.939463
vt 0.150279 0.672580
vt 0.015384 0.637471
vt 0.128925 0.723973
vt 0.000000 0.662689
vt 0.601459 0.301817
vt 0.723695 0.343195
vt 0.709771 0.385077
vt 0.584952 0.367833
vt 0.719165 0.441862
vt 0.594347 0.456716
vt 0.000000 0.790681
vt 0.127234 0.806097
vt 0.127234 0.862432
vt 0.000000 0.879122
vt 0.003872 0.723973
vt 0.126351 0.763984
vt 0.699362 0.614137
vt 0.826925 0.599364
vt 0.827603 0.642577
vt 0.705351 0.682010
vt 0.700426 0.525703
vt 0.827603 0.543033
vt 0.160454 0.723471
vt 0.297524 0.723238
vt 0.302914 0.770015
vt 0.177686 0.798711
vt 0.177686 0.637582
vt 0.302914 0.667379
vt 0.723695 0.485805
vt 0.601459 0.525703
vt 0.919135 0.384558
vt 0.817797 0.388736
vt 0.817797 0.330581
vt 0.919135 0.301817
vt 0.353537 0.554564
vt 0.455025 0.582232
vt 0.447929 0.655767
vt 0.334672 0.657382
vt 0.455025 0.717346
vt 0.353537 0.746797
vt 0.741709 0.000000
vt 0.844644 0.018945
vt 0.842205 0.093067
vt 0.738240 0.105457
vt 0.844644 0.150036
vt 0.745361 0.186610
vt 0.639766 0.000000
vt 0.738240 0.038986
vt 0.736482 0.094756
vt 0.633365 0.079787
vt 0.736482 0.168918
vt 0.633365 0.185301
vt 0.917615 0.490914
vt 0.819491 0.463914
vt 0.738240 0.226771
vt 0.639766 0.267171
vt 0.039763 0.944802
vt 0.036200 0.960594
vt 0.009809 0.948432
vt 0.022768 0.937658
vt 0.000000 0.920263
vt 0.016926 0.919360
vt 0.057581 0.941072
vt 0.064445 0.954682
vt 0.067884 0.928213
vt 0.081328 0.933460
vt 0.068231 0.908619
vt 0.081328 0.903238
vt 0.056080 0.895082
vt 0.062066 0.881778
vt 0.038056 0.892504
vt 0.032556 0.879122
vt 0.022593 0.902092
vt 0.008983 0.892891
vt 0.580411 0.810672
vt 0.560252 0.811503
vt 0.576188 0.765012
vt 0.592172 0.776363
vt 0.617382 0.741052
vt 0.623279 0.757635
vt 0.666986 0.747244
vt 0.659178 0.763251
vt 0.699362 0.784282
vt 0.683071 0.790583
vt 0.699362 0.834834
vt 0.682819 0.828260
vt 0.669412 0.871657
vt 0.660968 0.855063
vt 0.621099 0.881111
vt 0.625315 0.862040
vt 0.592542 0.845926
vt 0.577030 0.858772
vt 0.093056 0.520470
vt 0.088180 0.543345
vt 0.024513 0.509712
vt 0.042928 0.494405
vt 0.000000 0.441236
vt 0.023917 0.440411
vt 0.148397 0.509986
vt 0.158763 0.529973
vt 0.183057 0.467858
vt 0.203235 0.475854
vt 0.183266 0.410224
vt 0.203235 0.402735
vt 0.146478 0.367625
vt 0.156315 0.348404
vt 0.090873 0.358583
vt 0.084430 0.338284
vt 0.042470 0.387329
vt 0.023663 0.373534
vt 0.356725 0.427743
vt 0.334672 0.428609
vt 0.364006 0.345346
vt 0.381323 0.357924
vt 0.439136 0.301817
vt 0.445137 0.320240
vt 0.527365 0.314820
vt 0.518307 0.332326
vt 0.584952 0.381840
vt 0.566597 0.388525
vt 0.584952 0.471517
vt 0.566440 0.463951
vt 0.529822 0.538321
vt 0.520367 0.519743
vt 0.442900 0.554564
vt 0.447480 0.533363
vt 0.381882 0.498439
vt 0.364859 0.512645
vt 0.468870 0.275946
vt 0.463529 0.301817
vt 0.370698 0.251370
vt 0.391259 0.234091
vt 0.334672 0.151320
vt 0.361363 0.150385
vt 0.555417 0.259930
vt 0.567264 0.282621
vt 0.610404 0.193538
vt 0.633365 0.202764
vt 0.610566 0.104270
vt 0.633365 0.096047
vt 0.553362 0.037460
vt 0.564801 0.015970
vt 0.466533 0.022962
vt 0.459756 0.000000
vt 0.390707 0.067560
vt 0.369843 0.052046
vt 0.000000 0.169549
vt 0.039510 0.058375
vt 0.140408 0.000000
vt 0.257951 0.018174
vt 0.334672 0.107956
vt 0.127234 0.723973
vt 0.159858 0.727364
vt 0.159858 0.840691
vt 0.128602 0.820795
vt 0.334672 0.227337
vt 0.260418 0.316893
vt 0.144187 0.338284
vt 0.040366 0.281500
vt 0.890526 0.770277
vt 0.895658 0.685352
vt 0.926220 0.682288
vt 0.912553 0.768069
vt 0.461840 0.849080
vt 0.455025 0.768776
vt 0.494032 0.769743
vt 0.489953 0.849777
vt 0.526205 0.763684
vt 0.513141 0.845410
vt 0.924604 0.388790
vt 0.919135 0.308658
vt 0.958305 0.308658
vt 0.952835 0.388790
vt 0.988310 0.301817
vt 0.974460 0.383860
vt 0.912934 0.598701
vt 0.926784 0.682010
vt 0.896778 0.676209
vt 0.891309 0.594520
vt 0.857609 0.676209
vt 0.863078 0.594520
vt 0.849311 0.223417
vt 0.849311 0.262587
vt 0.824134 0.292593
vt 0.785559 0.299395
vt 0.751637 0.279810
vt 0.738240 0.243002
vt 0.751637 0.206195
vt 0.785559 0.186610
vt 0.824133 0.193412
vt 0.862303 0.770198
vt 0.856498 0.685242
vt 0.841089 0.767868
vt 0.827063 0.682010
vt 0.746590 0.838961
vt 0.785091 0.845770
vt 0.810220 0.875780
vt 0.810220 0.914950
vt 0.785091 0.944951
vt 0.746590 0.951746
vt 0.712733 0.932154
vt 0.699362 0.895344
vt 0.712733 0.858539
vt 0.857609 0.507770
vt 0.841453 0.598701
vt 0.827603 0.513571
vt 0.856498 0.856980
vt 0.895658 0.857090
vt 0.896778 0.507770
vt 0.926784 0.513571
vt 0.958305 0.475243
vt 0.988310 0.468403
vt 0.919135 0.475243
vt 0.494032 0.936353
vt 0.526205 0.930295
vt 0.455025 0.935386
vt 0.926220 0.854025
vn 0.3238 0.3221 -0.8896
vn 0.8730 0.3022 -0.3827
vn 0.9536 0.2971 0.0477
vn 0.6109 0.3112 0.7280
vn -0.1164 0.2965 0.9479
vn -0.5313 0.3015 0.7917
vn -0.9327 0.3210 0.1645
vn 0.0000 1.0000 -0.0000
vn -0.3809 0.3169 -0.8686
vn -0.7898 0.3166 -0.5253
vn 0.0415 -0.9991 0.0024
vn -0.7667 0.4310 -0.4757
vn -0.3356 0.4304 -0.8379
vn -0.8898 0.4285 0.1569
vn -0.5511 0.4230 0.7193
vn -0.0455 0.4187 0.9070
vn 0.5844 0.4163 0.6965
vn 0.9079 0.3960 0.1376
vn 0.8023 0.4025 -0.4408
vn 0.3093 0.4266 -0.8499
vn -0.7838 0.3370 -0.5217
vn -0.3783 0.3367 -0.8623
vn -0.9279 0.3351 0.1636
vn -0.5277 0.3288 0.7832
vn -0.1127 0.3256 0.9388
vn 0.6078 0.3254 0.7244
vn 0.9437 0.3122 0.1093
vn 0.8444 0.3173 -0.4317
vn 0.3224 0.3342 -0.8857
vn 0.3209 0.3458 -0.8817
vn 0.8325 0.3304 -0.4447
vn 0.9366 0.3260 0.1283
vn 0.6047 0.3390 0.7207
vn -0.0735 0.3409 0.9372
vn -0.5534 0.3441 0.7585
vn -0.9230 0.3487 0.1627
vn -0.3579 0.3490 -0.8661
vn -0.7906 0.3500 -0.5024
vn -0.7957 0.3507 -0.4939
vn -0.3486 0.3496 -0.8696
vn -0.9228 0.3491 0.1627
vn -0.5664 0.3446 0.7487
vn -0.0551 0.3408 0.9385
vn 0.6048 0.3385 0.7208
vn 0.9359 0.3243 0.1375
vn 0.8290 0.3293 -0.4520
vn 0.3209 0.3461 -0.8816
vn 0.3114 0.4133 -0.8557
vn 0.8077 0.3910 -0.4412
vn 0.9129 0.3849 0.1357
vn 0.5881 0.4035 0.7009
vn -0.0509 0.4056 0.9126
vn -0.5513 0.4096 0.7268
vn -0.8960 0.4150 0.1580
vn -0.3404 0.4168 -0.8429
vn -0.7708 0.4174 -0.4812
vn 0.1824 -0.8628 0.4715
vn 0.4347 -0.8567 0.2778
vn 0.4511 -0.8889 -0.0795
vn 0.0338 -0.8164 -0.5765
vn 0.3326 -0.8240 -0.4586
vn -0.3049 -0.8804 -0.3633
vn -0.6502 -0.7582 0.0485
vn -0.6189 -0.7661 0.1734
vn -0.1439 -0.9072 0.3954
vn -0.1295 -0.9255 0.3559
vn -0.5359 -0.8196 0.2028
vn -0.5873 -0.8093 -0.0082
vn -0.2691 -0.9081 -0.3207
vn 0.1984 -0.8870 -0.4170
vn 0.1156 -0.8858 -0.4495
vn 0.3987 -0.9144 -0.0703
vn 0.3033 -0.9077 0.2901
vn 0.2296 -0.9091 0.3477
vn 0.2137 -0.9379 0.2733
vn 0.2322 -0.9377 0.2586
vn 0.3356 -0.9401 -0.0592
vn 0.1208 -0.9255 -0.3590
vn 0.1379 -0.9257 -0.3523
vn -0.2263 -0.9360 -0.2697
vn -0.5129 -0.8581 -0.0235
vn -0.4618 -0.8659 0.1920
vn -0.1107 -0.9462 0.3041
vn -0.1302 -0.9247 0.3577
vn -0.5031 -0.8320 0.2339
vn -0.5695 -0.8205 -0.0494
vn -0.2660 -0.9104 -0.3170
vn 0.1072 -0.9038 -0.4144
vn 0.1839 -0.9047 -0.3844
vn 0.3927 -0.9170 -0.0692
vn 0.2232 -0.9201 0.3218
vn 0.2799 -0.9193 0.2765
vn 0.2434 -0.9398 0.2401
vn 0.1938 -0.9402 0.2801
vn 0.3381 -0.9392 -0.0596
vn 0.1572 -0.9309 -0.3297
vn 0.0922 -0.9303 -0.3550
vn -0.2282 -0.9348 -0.2720
vn -0.4989 -0.8656 -0.0432
vn -0.4422 -0.8730 0.2057
vn -0.1133 -0.9435 0.3114
vn -0.2817 -0.5673 0.7738
vn -0.6966 -0.6658 0.2673
vn -0.4648 -0.8844 -0.0418
vn -0.5116 -0.7239 -0.4627
vn 0.0523 -0.5359 -0.8427
vn 0.4635 -0.7303 -0.5019
vn 0.2956 -0.9539 -0.0521
vn 0.3663 -0.7441 0.5587
vn 0.2118 -0.9540 0.2122
vn 0.3371 -0.1693 -0.9261
vn 0.8535 -0.1693 -0.4928
vn 0.9706 -0.1693 0.1711
vn 0.6335 -0.1693 0.7550
vn -0.0000 -0.1693 0.9856
vn -0.6335 -0.1693 0.7550
vn -0.9706 -0.1693 0.1711
vn -0.3371 -0.1693 -0.9261
vn -0.8535 -0.1693 -0.4928
vn 0.0000 -1.0000 -0.0000
vn -0.8530 0.1729 -0.4925
vn -0.3369 0.1729 -0.9255
vn -0.9700 0.1729 0.1710
vn -0.6331 0.1729 0.7545
vn -0.0000 0.1729 0.9849
vn 0.6331 0.1729 0.7545
vn 0.9700 0.1729 0.1710
vn 0.8530 0.1729 -0.4925
vn 0.3369 0.1729 -0.9255
usemtl Leaves
s 1
f 1/1/1 2/2/1 3/3/1 4/4/1
f 4/5/2 3/6/2 5/7/2 6/8/2
f 6/8/3 5/7/3 7/9/3 8/10/3
f 8/11/4 7/12/4 9/13/4 10/14/4
f 10/14/5 9/13/5 11/15/5 12/16/5
f 12/17/6 11/18/6 13/19/6 14/20/6
f 14/20/7 13/19/7 15/21/7 16/22/7
f 3/23/8 2/24/8 17/25/8 15/26/8 13/27/8 11/28/8 9/29/8 7/30/8 5/31/8
f 18/32/9 17/33/9 2/2/9 1/1/9
f 16/34/10 15/35/10 17/33/10 18/32/10
f 19/36/11 20/37/11 21/38/11 22/39/11 23/40/11 24/41/11 25/42/11 26/43/11 27/44/11
f 28/45/12 29/46/12 30/47/12 31/48/12
f 31/49/13 30/50/13 32/51/13 33/52/13
f 34/53/14 35/54/14 29/46/14 28/45/14
f 36/55/15 37/56/15 35/54/15 34/53/15
f 38/57/16 39/58/16 37/59/16 36/60/16
f 40/61/17 41/62/17 39/58/17 38/57/17
f 42/63/18 43/64/18 41/65/18 40/66/18
f 44/67/19 45/68/19 43/64/19 42/63/19
f 33/52/20 32/51/20 45/69/20 44/70/20
f 46/71/21 47/72/21 48/73/21 49/74/21
f 49/74/22 48/73/22 50/75/22 51/76/22
f 52/77/23 53/78/23 47/79/23 46/80/23
f 54/81/24 55/82/24 53/78/24 52/77/24
f 56/83/25 57/84/25 55/85/25 54/86/25
f 58/87/26 59/88/26 57/84/26 56/83/26
f 60/89/27 61/90/27 59/91/27 58/92/27
f 62/93/28 63/94/28 61/90/28 60/89/28
f 51/76/29 50/75/29 63/95/29 62/96/29
f 64/97/30 65/98/30 66/99/30 67/100/30
f 67/101/31 66/102/31 68/103/31 69/104/31
f 69/104/32 68/103/32 70/105/32 71/106/32
f 71/107/33 70/108/33 72/109/33 73/110/33
f 73/110/34 72/109/34 74/111/34 75/112/34
f 75/113/35 74/114/35 76/115/35 77/116/35
f 77/116/36 76/115/36 78/117/36 79/118/36
f 80/119/37 81/120/37 65/98/37 64/97/37
f 79/121/38 78/122/38 81/120/38 80/119/38
f 82/123/39 83/124/39 84/125/39 85/126/39
f 85/126/40 84/125/40 86/127/40 87/128/40
f 88/129/41 89/130/41 83/131/41 82/132/41
f 90/133/42 91/134/42 89/130/42 88/129/42
f 92/135/43 93/136/43 91/137/43 90/138/43
f 94/139/44 95/140/44 93/136/44 92/135/44
f 96/141/45 97/142/45 95/143/45 94/144/45
f 98/145/46 99/146/46 97/142/46 96/141/46
f 87/128/47 86/127/47 99/147/47 98/148/47
f 100/149/48 101/150/48 102/151/48 103/152/48
f 103/153/49 102/154/49 104/155/49 105/156/49
f 105/156/50 104/155/50 106/157/50 107/158/50
f 107/159/51 106/160/51 108/161/51 109/162/51
f 109/162/52 108/161/52 110/163/52 111/164/52
f 111/165/53 110/166/53 112/167/53 113/168/53
f 113/168/54 112/167/54 114/169/54 115/170/54
f 116/171/55 117/172/55 101/150/55 100/149/55
f 115/170/56 114/169/56 117/173/56 116/174/56
f 47/175/57 16/176/57 18/177/57 48/178/57
f 48/178/58 18/177/58 1/179/58 50/180/58
f 53/181/59 14/182/59 16/176/59 47/175/59
f 55/183/60 12/184/60 14/182/60 53/181/60
f 57/185/61 10/186/61 12/184/61 55/183/61
f 59/187/62 8/188/62 10/186/62 57/185/62
f 61/189/63 6/190/63 8/188/63 59/187/63
f 63/191/64 4/192/64 6/190/64 61/189/64
f 50/180/65 1/179/65 4/192/65 63/191/65
f 65/193/66 51/194/66 62/195/66 66/196/66
f 66/196/67 62/195/67 60/197/67 68/198/67
f 68/198/68 60/197/68 58/199/68 70/200/68
f 70/200/69 58/199/69 56/201/69 72/202/69
f 72/202/70 56/201/70 54/203/70 74/204/70
f 74/204/71 54/203/71 52/205/71 76/206/71
f 76/206/72 52/205/72 46/207/72 78/208/72
f 81/209/73 49/210/73 51/194/73 65/193/73
f 78/208/74 46/207/74 49/210/74 81/209/74
f 83/211/75 79/212/75 80/213/75 84/214/75
f 84/214/76 80/213/76 64/215/76 86/216/76
f 89/217/77 77/218/77 79/212/77 83/211/77
f 91/219/78 75/220/78 77/218/78 89/217/78
f 93/221/79 73/222/79 75/220/79 91/219/79
f 95/223/80 71/224/80 73/222/80 93/221/80
f 97/225/81 69/226/81 71/224/81 95/223/81
f 99/227/82 67/228/82 69/226/82 97/225/82
f 86/216/83 64/215/83 67/228/83 99/227/83
f 101/229/84 87/230/84 98/231/84 102/232/84
f 102/232/85 98/231/85 96/233/85 104/234/85
f 104/234/86 96/233/86 94/235/86 106/236/86
f 106/236/87 94/235/87 92/237/87 108/238/87
f 108/238/88 92/237/88 90/239/88 110/240/88
f 110/240/89 90/239/89 88/241/89 112/242/89
f 112/242/90 88/241/90 82/243/90 114/244/90
f 117/245/91 85/246/91 87/230/91 101/229/91
f 114/244/92 82/243/92 85/246/92 117/245/92
f 29/247/93 115/248/93 116/249/93 30/250/93
f 30/250/94 116/249/94 100/251/94 32/252/94
f 35/253/95 113/254/95 115/248/95 29/247/95
f 37/255/96 111/256/96 113/254/96 35/253/96
f 39/257/97 109/258/97 111/256/97 37/255/97
f 41/259/98 107/260/98 109/258/98 39/257/98
f 43/261/99 105/262/99 107/260/99 41/259/99
f 45/263/100 103/264/100 105/262/100 43/261/100
f 32/252/101 100/251/101 103/264/101 45/263/101
f 19/36/102 33/265/102 44/266/102 20/37/102
f 20/37/103 44/266/103 42/267/103 21/38/103
f 21/38/104 42/267/104 40/268/104 22/39/104
f 22/39/105 40/268/105 38/269/105 23/40/105
f 23/270/106 38/271/106 36/272/106 24/273/106
f 24/41/107 36/274/107 34/275/107 25/42/107
f 25/42/108 34/275/108 28/276/108 26/43/108
f 27/44/109 31/277/109 33/265/109 19/36/109
f 26/43/110 28/276/110 31/277/110 27/44/110
usemtl Bark
f 118/278/111 119/279/111 120/280/111 121/281/111
f 121/282/112 120/283/112 122/284/112 123/285/112
f 123/285/113 122/284/113 124/286/113 125/287/113
f 125/288/114 124/289/114 126/290/114 127/291/114
f 127/291/115 126/290/115 128/292/115 129/293/115
f 129/294/116 128/295/116 130/296/116 131/297/116
f 131/297/117 130/296/117 132/298/117 133/299/117
f 120/300/8 119/301/8 134/302/8 132/303/8 130/304/8 128/305/8 126/306/8 124/307/8 122/308/8
f 135/309/118 134/310/118 119/279/118 118/278/118
f 133/311/119 132/312/119 134/310/119 135/309/119
f 136/313/120 137/314/120 138/315/120 139/316/120 140/317/120 141/318/120 142/319/120 143/320/120 144/321/120
f 143/322/121 133/299/121 135/323/121 144/324/121
f 144/325/122 135/309/122 118/278/122 136/326/122
f 142/327/123 131/297/123 133/299/123 143/322/123
f 141/328/124 129/294/124 131/297/124 142/327/124
f 140/329/125 127/291/125 129/293/125 141/330/125
f 139/331/126 125/288/126 127/291/126 140/329/126
f 138/332/127 123/285/127 125/287/127 139/333/127
f 137/334/128 121/282/128 123/285/128 138/332/128
f 136/326/129 118/278/129 121/281/129 137/335/129
